<?xml version="1.0" encoding="utf-8"?>
<!-- Generator: Adobe Illustrator 26.3.1, SVG Export Plug-In . SVG Version: 6.00 Build 0)  -->
<svg version="1.1"
	 id="svg39699" xmlns:cc="http://creativecommons.org/ns#" xmlns:svg="http://www.w3.org/2000/svg" xmlns:sodipodi="http://sodipodi.sourceforge.net/DTD/sodipodi-0.dtd" xmlns:rdf="http://www.w3.org/1999/02/22-rdf-syntax-ns#" xmlns:inkscape="http://www.inkscape.org/namespaces/inkscape" xmlns:dc="http://purl.org/dc/elements/1.1/"
	 xmlns="http://www.w3.org/2000/svg" xmlns:xlink="http://www.w3.org/1999/xlink" x="0px" y="0px" viewBox="0 0 160.9 139.1"
	 style="enable-background:new 0 0 160.9 139.1;" xml:space="preserve">
<style type="text/css">
	.st0{fill-rule:evenodd;clip-rule:evenodd;fill:#0D1F30;}
	.st1{fill:#FFFFFF;}
	.st2{fill-rule:evenodd;clip-rule:evenodd;fill:#FFFFFF;}
</style>
<sodipodi:namedview  bordercolor="#666666" borderopacity="1" gridtolerance="10" guidetolerance="10" id="namedview39701" inkscape:current-layer="surface42898" inkscape:cx="-134.94221" inkscape:cy="117.82756" inkscape:pageopacity="0" inkscape:pageshadow="2" inkscape:window-height="705" inkscape:window-maximized="1" inkscape:window-width="1366" inkscape:window-x="-8" inkscape:window-y="-8" inkscape:zoom="0.99751618" objecttolerance="10" pagecolor="#ffffff" showgrid="false">
	</sodipodi:namedview>
<g id="surface42898" transform="translate(-436.73889,-307.10097)">
	<path id="path39462_00000129922863221905977100000013354841899233942191_" inkscape:connector-curvature="0" class="st0" d="
		M597.6,307.1v93l-80.4,46.1l-80.4-46.1v-93"/>
	<path id="path39464" inkscape:connector-curvature="0" class="st1" d="M441,311.2h-0.2v86.5l76.3,43.9l0,0h0.1l76.2-43.9l0.1,0
		v-86.5L441,311.2z"/>
	<path id="path39466" inkscape:connector-curvature="0" class="st0" d="M445,315.3v46.8h144.2v-46.9L445,315.3z"/>
	<path id="path39468" inkscape:connector-curvature="0" class="st0" d="M445,366.2v29.1l72.1,41.5l72.1-41.4v-29.1L445,366.2z"/>
	<path id="path39470" inkscape:connector-curvature="0" class="st2" d="M480.2,356.6v-28.3h15v-7.5h-40.6v7.5h15v28.3H480.2z"/>
	<path id="path39472" inkscape:connector-curvature="0" class="st2" d="M577.9,355.9c-8.1,1.6-18.6,2-26.2-1
		c-6.5-2.4-10.5-8.3-11.3-13.9c-0.9-7,2.2-13.1,8.7-17.2c7.6-4.7,19.6-4.5,27.9-1.3v7.8c-6.2-2.5-15.6-4.6-21.6-0.7
		c-4.3,2.8-5.6,7.3-4.6,11.9c0.9,3.5,4.4,6.8,8.4,7.9c2.8,0.8,6.2,1,9.4,0.7v-5.8l-4.1,0v-7h13.5V355.9z"/>
	<path id="path39474" inkscape:connector-curvature="0" class="st2" d="M514.8,329.7l-6.5,12.6h12.5L514.8,329.7z M505.4,349.6
		l-3.6,7H491l17.6-35.8h12.1l17.9,35.8h-10.9l-3.7-7H505.4z"/>
	<path id="path39476" inkscape:connector-curvature="0" class="st1" d="M528.9,422.8v-51l-0.3-0.3h-5.2l-0.3,0.3v47.9l-6,3.3
		l-6.1-3.3v-47.9l-0.3-0.3h-5.2l-0.2,0.1l-0.1,0.2v51l0.1,0.2l11.5,6.6h0.3l11.5-6.6L528.9,422.8z"/>
	<path id="path39478" inkscape:connector-curvature="0" class="st1" d="M497,418.1h0.2l0.1-0.2v-5.5l-0.1-0.2l-11-6v-13.4l9.9,2.5
		l0.2-0.3v-5.5l-0.2-0.3l-9.9-2.2v-10.6h10.9l0.3-0.3v-4.5l-0.3-0.3h-16.2l-0.3,0.3v36.8l0.1,0.2L497,418.1z"/>
	<path id="path39480" inkscape:connector-curvature="0" class="st1" d="M554.8,407.9v-5l-0.1-0.2l-0.2,0l-10.8,5.9v-14.7l10.1-2.6
		l0.2-0.3v-4.9l-0.1-0.2l-0.2-0.1l-10,2.2v-11.6h10.9l0.3-0.3v-4.5l-0.3-0.3h-16.2l-0.3,0.3v45.4l0.1,0.2h0.3l16.2-9.3L554.8,407.9z
		"/>
	<path id="path39482" inkscape:connector-curvature="0" class="st1" d="M467,400.9l4.5,2.6h0.3l0.1-0.2v-31.5l-0.3-0.3h-4.5
		l-0.3,0.3v11.1l-10.8-2.4v-8.7l-0.3-0.3h-4.4l-0.2,0.1l-0.1,0.2v19.9l0.1,0.2l4.4,2.5h0.3l0.1-0.2v-9.1l10.8,2.7v12.9L467,400.9z"
		/>
	<path id="path39484" inkscape:connector-curvature="0" class="st1" d="M568.2,376.5h9.4c0.4,0,0.7,0.4,0.7,0.8v2.4
		c0,0.5-0.1,0.8-0.8,1l-9.3,2L568.2,376.5z M563.3,403.1h0.3l4.6-2.6l0-0.1v-12.8l2.7-0.7l7.9,7.1l0.4,0.1l4-2.4l0.1-0.2l0-0.2
		l-6.9-5.9l4.9-1.2c1.6-0.4,1.9-1.2,1.9-2.8l0-8.1c-0.2-1.2-1.1-1.8-2.3-1.8h-17.5l-0.3,0.3v31L563.3,403.1"/>
</g>
</svg>
